<svg xmlns="http://www.w3.org/2000/svg" version="1.1" xmlns:xlink="http://www.w3.org/1999/xlink" xmlns:svgjs="http://svgjs.com/svgjs" width="512.000000pt" height="512.000000pt"><svg version="1.0" xmlns="http://www.w3.org/2000/svg" width="512.000000pt" height="512.000000pt" viewBox="0 0 512.000000 512.000000" preserveAspectRatio="xMidYMid meet">
<metadata>
Created by potrace 1.14, written by Peter Selinger 2001-2017
</metadata>
<g transform="translate(0.000000,512.000000) scale(0.100000,-0.100000)" fill="#000000" stroke="none">
<path d="M2260 5074 c-28 -27 -81 -78 -118 -115 -53 -54 -70 -66 -86 -60 -73
25 -146 -39 -131 -116 l6 -35 -458 -458 -458 -459 -55 53 c-60 58 -104 75
-142 56 -13 -7 -200 -188 -416 -404 -411 -410 -417 -417 -393 -478 6 -15 31
-48 56 -73 25 -25 45 -49 45 -53 0 -4 -23 -29 -50 -57 -57 -56 -64 -73 -56
-120 10 -52 50 -85 103 -85 40 0 50 5 102 54 l57 55 58 -55 c52 -47 64 -54
100 -54 23 0 51 6 62 14 18 14 29 -5 232 -410 116 -234 212 -430 212 -437 0
-7 -63 -75 -140 -151 -150 -150 -165 -175 -139 -237 15 -37 76 -69 117 -61 17
3 72 49 149 125 l123 120 14 -34 c9 -22 13 -65 12 -124 -1 -55 3 -103 11 -124
13 -35 220 -248 262 -270 14 -8 68 -14 135 -15 68 -1 120 -7 135 -15 23 -13
21 -15 -98 -135 -119 -121 -121 -124 -121 -168 0 -35 6 -51 26 -71 29 -29 85
-44 115 -31 10 5 83 73 161 150 l143 142 433 -217 c297 -149 429 -220 422
-227 -6 -6 -14 -24 -19 -40 -12 -42 8 -84 64 -140 l45 -46 -55 -60 c-49 -53
-55 -64 -55 -102 0 -51 34 -92 84 -101 44 -9 78 7 127 59 23 26 44 46 48 46 3
0 30 -23 59 -50 54 -49 100 -68 139 -56 11 3 195 181 409 395 417 418 427 430
400 494 -8 18 -34 52 -60 76 l-46 45 458 458 457 458 37 -6 c73 -11 128 43
121 121 -3 39 -1 43 101 144 113 112 130 144 105 204 -15 35 -77 67 -117 59
-17 -3 -69 -46 -137 -112 -106 -104 -111 -108 -150 -105 -74 5 -122 -45 -113
-119 4 -34 -6 -45 -454 -493 l-457 -457 -54 52 c-93 88 -127 84 -242 -28 l-80
-79 -57 57 -57 58 457 457 c410 410 461 457 487 456 56 -3 72 1 98 26 28 29
39 68 27 99 -6 17 4 33 51 83 54 56 59 65 59 106 0 53 -33 93 -85 103 -47 9
-63 1 -124 -59 -53 -52 -56 -54 -101 -49 -40 4 -49 1 -79 -27 -30 -28 -33 -35
-29 -80 l3 -50 -458 -458 -457 -457 -103 103 c-57 56 -108 106 -114 109 -7 4
22 41 73 92 46 46 85 92 85 102 1 10 1 27 1 38 0 11 0 25 -1 31 0 6 -39 50
-86 98 l-84 86 715 895 c394 492 729 910 745 930 210 258 227 287 196 346 -24
45 -248 261 -280 269 -15 4 -38 4 -52 1 -19 -5 -439 -333 -735 -575 -19 -16
-334 -268 -700 -560 l-664 -531 -81 79 c-44 44 -92 84 -107 90 -47 17 -87 -3
-173 -88 -46 -45 -83 -75 -86 -69 -4 6 -53 57 -110 115 l-102 103 460 460
c417 417 462 460 483 452 32 -12 61 -5 96 23 25 20 29 30 31 80 1 54 3 59 57
115 58 60 66 83 47 133 -17 44 -51 67 -99 67 -39 0 -49 -5 -102 -56 -49 -47
-64 -56 -86 -51 -40 7 -90 -10 -108 -38 -19 -29 -27 -78 -15 -97 6 -9 -123
-145 -453 -475 l-462 -462 -58 57 -57 57 79 80 c112 115 116 149 28 242 l-52
54 459 459 c448 448 459 458 491 453 72 -12 125 39 118 112 -3 38 -1 42 106
151 99 100 110 115 110 147 0 70 -29 103 -100 113 -36 5 -43 2 -90 -42z m1963
-928 c-4 -6 -229 -289 -501 -629 l-495 -619 -163 163 c-129 129 -161 166 -151
175 6 7 288 233 626 504 l614 491 38 -37 c21 -21 35 -42 32 -48z m-3494 -921
c-162 -162 -297 -295 -300 -295 -4 0 -43 37 -88 82 l-82 82 298 298 297 298
85 -85 84 -85 -294 -295z m481 -319 l240 -239 -180 -181 c-100 -100 -185 -188
-190 -196 -5 -8 -10 -32 -10 -52 0 -37 34 -88 95 -140 20 -17 19 -18 -23 -59
-23 -23 -44 -40 -47 -38 -2 2 -100 196 -217 431 l-214 427 145 146 c80 80 149
144 153 143 4 -2 115 -111 248 -242z m1704 4 l179 -180 -49 -63 c-26 -34 -51
-64 -54 -67 -4 -4 -312 -390 -325 -408 -2 -2 -20 8 -40 23 -43 28 -74 31 -113
11 -42 -23 -692 -679 -694 -701 0 -11 -2 -27 -3 -35 -2 -25 21 -63 69 -110
l46 -46 -68 -67 -69 -68 -86 40 c-81 39 -91 41 -180 41 l-95 0 -76 76 -76 76
0 95 c0 90 -2 99 -41 181 l-40 85 67 68 67 68 49 -47 c119 -114 102 -124 504
280 183 183 337 343 343 355 17 34 13 67 -14 107 l-24 36 267 215 c147 118
269 214 272 214 3 1 85 -80 184 -179z m-1175 -596 l-244 -244 -85 85 -85 85
245 245 245 245 84 -86 85 -85 -245 -245z m908 -417 l82 -83 -244 -244 -245
-245 -85 85 -85 84 243 243 c133 133 244 243 247 243 3 0 42 -37 87 -83z m268
-694 l240 -243 -145 -145 c-80 -80 -149 -145 -154 -145 -9 0 -847 418 -856
427 -3 2 15 23 38 45 l44 40 52 -51 c60 -59 99 -75 142 -56 16 7 110 94 209
194 99 99 182 180 185 179 3 -1 113 -111 245 -245z m692 -266 l82 -83 -297
-297 -297 -297 -60 58 c-33 33 -71 71 -84 86 l-25 26 295 295 c162 162 296
295 299 295 3 0 42 -37 87 -83z"></path>
</g>
</svg><style>@media (prefers-color-scheme: light) { :root { filter: none; } }
@media (prefers-color-scheme: dark) { :root { filter: invert(100%); } }
</style></svg>